<svg width="16" height="18" viewBox="0 0 16 18" fill="none" xmlns="http://www.w3.org/2000/svg">
<path d="M11.8125 0.0174485C11.7428 0.0174485 5.0625 0 5.0625 0C3.87224 0 2.81251 1.09182 2.81251 2.25001L2.16226 2.2652C0.972563 2.2652 0 3.34181 0 4.5V15.75C0 16.9082 1.05975 18 2.25001 18H10.6875C11.8777 18 12.9375 16.9082 12.9375 15.75H13.5C14.6903 15.75 15.75 14.6582 15.75 13.5V4.51351L11.8125 0.0174485ZM10.6875 16.875H2.25001C1.65939 16.875 1.12502 16.3232 1.12502 15.75V4.5C1.12502 3.66301 1.81352 3.37501 2.81251 3.37501V13.5C2.81251 14.6582 3.87224 15.75 5.0625 15.75C5.0625 15.75 11.1611 15.7438 11.8176 15.7438C11.8176 16.4267 11.3698 16.875 10.6875 16.875ZM11.8125 11.8187H6.75001C6.43952 11.8187 6.18752 11.5673 6.18752 11.2567C6.18752 10.9463 6.43952 10.6948 6.75001 10.6948H11.8125C12.123 10.6948 12.375 10.9463 12.375 11.2567C12.375 11.5673 12.123 11.8187 11.8125 11.8187ZM11.8125 9.00901H6.75001C6.43952 9.00901 6.18752 8.75755 6.18752 8.44708C6.18752 8.13658 6.43952 7.88515 6.75001 7.88515H11.8125C12.123 7.88515 12.375 8.13658 12.375 8.44708C12.375 8.75701 12.123 9.00901 11.8125 9.00901ZM12.9375 4.5C12.3385 4.5 11.8125 3.95946 11.8125 3.37501C11.8125 3.37501 11.8125 2.23537 11.8125 1.14244V1.14131L14.625 4.5H12.9375Z" fill="#868686"/>
</svg>
